<svg width="26" height="26" viewBox="0 0 26 26" fill="none" xmlns="http://www.w3.org/2000/svg">
<path d="M19.4133 7.17167C19.3033 6.90695 19.093 6.6966 18.8283 6.58667C18.698 6.53116 18.5582 6.50171 18.4166 6.5H7.58327C7.29595 6.5 7.0204 6.61414 6.81724 6.8173C6.61407 7.02047 6.49993 7.29602 6.49993 7.58333C6.49993 7.87065 6.61407 8.1462 6.81724 8.34937C7.0204 8.55253 7.29595 8.66667 7.58327 8.66667H15.8058L6.8141 17.6475C6.71256 17.7482 6.63197 17.868 6.57697 18C6.52197 18.1321 6.49365 18.2737 6.49365 18.4167C6.49365 18.5597 6.52197 18.7013 6.57697 18.8333C6.63197 18.9653 6.71256 19.0851 6.8141 19.1858C6.91481 19.2874 7.03463 19.368 7.16664 19.423C7.29866 19.478 7.44025 19.5063 7.58327 19.5063C7.72628 19.5063 7.86788 19.478 7.99989 19.423C8.13191 19.368 8.25172 19.2874 8.35243 19.1858L17.3333 10.1942V18.4167C17.3333 18.704 17.4474 18.9795 17.6506 19.1827C17.8537 19.3859 18.1293 19.5 18.4166 19.5C18.7039 19.5 18.9795 19.3859 19.1826 19.1827C19.3858 18.9795 19.4999 18.704 19.4999 18.4167V7.58333C19.4982 7.44177 19.4688 7.30191 19.4133 7.17167Z" fill="#0F151F"/>
</svg>
